<svg height='300px' width='300px'  fill="#FFFFFF" xmlns="http://www.w3.org/2000/svg" xmlns:xlink="http://www.w3.org/1999/xlink" version="1.1" x="0px" y="0px" viewBox="0 0 100 100" enable-background="new 0 0 100 100" xml:space="preserve"><g><rect x="36.0551758" y="71.0415039" width="27.8896484" height="1"></rect><rect x="42.3125" y="53.7797852" width="15.375" height="1"></rect><path d="M62.159668,73.0415039H37.840332c-4.2250977,7.3989258-14.090332,20.875-14.090332,20.875h9.8525391   c0.987793-8.3847656,8.2197266-14.7871094,16.824707-14.5644531c8.3129883,0.215332,15.0126953,6.5415039,15.9589844,14.5644531   H76.25C76.25,93.9165039,66.3847656,80.4404297,62.159668,73.0415039z"></path><path d="M55.8955078,55.7797852H44.1044922c-1.21875,4.7709961-2.7685547,9.5991211-4.7338867,14.2617188h21.2587891   C58.6640625,65.3789062,57.1142578,60.5507812,55.8955078,55.7797852z M45.1894531,69.0415039l2.3774414-10.25h4.7661133   l2.4775391,10.25H45.1894531z"></path><path d="M55.1728516,52.7797852c-4.4848633-19.5878906-3.6538086-37.3632812-3.6538086-37.3632812h-0.0043945l1.1245117-1.5   v-2.5625l-1.1201172-1.5H50.5V6.0834961h-1v3.7705078h-1.0146484l-1.1245117,1.5v2.5625l1.1201172,1.5   c0,0,0.8310547,17.7753906-3.6538086,37.3632812H55.1728516z"></path></g></svg>