<svg height='300px' width='300px'  fill="#FFFFFF" xmlns="http://www.w3.org/2000/svg" xmlns:xlink="http://www.w3.org/1999/xlink" version="1.1" x="0px" y="0px" viewBox="0 0 100 100" enable-background="new 0 0 100 100" xml:space="preserve"><g><path d="M49.784668,22.1328125c2.8930664,0,5.0703125-4.1318359,5.0703125-6.8105469   c0-2.7958984-2.2744141-5.0703125-5.0703125-5.0703125s-5.0703125,2.2744141-5.0703125,5.0703125   C44.7143555,18.0009766,46.8916016,22.1328125,49.784668,22.1328125z"></path><path d="M16.9047852,22.03125c-0.1757812,0-0.3383789,0.0927734-0.4287109,0.2431641s-0.0952148,0.3378906-0.012207,0.4921875   l1.0019531,1.8769531c0.0869141,0.1630859,0.2563477,0.2646484,0.440918,0.2646484h2.2519531L19.4799805,22.03125H16.9047852z"></path><path d="M83.5239258,22.3613281c-0.090332-0.1503906-0.2529297-0.2421875-0.4287109-0.2421875h-2.5751953l-0.6787109,2.8759766   h2.2519531c0.1845703,0,0.3540039-0.1015625,0.440918-0.2646484l1.0019531-1.8759766   C83.6191406,22.6992188,83.6142578,22.5126953,83.5239258,22.3613281z"></path><path d="M59.4360352,35.1806641l5.9404297-7.7041016l0.6499023,0.3945312l-3.7392578,5.1171875l10.7841797-6.4023438   l0.5341797,0.453125l-5.5205078,3.4589844l8.559082,1.7451172c0.2612305,0.0498047,0.5151367-0.1181641,0.5766602-0.3769531   l2.2993164-9.7470703H57.4360352L59.4360352,35.1806641z"></path><path d="M53.7895508,22.03125l2.418457,41.6298828L59.875,63.9892578l-0.0019531-0.0234375l2.1557617-2.2519531   c0.0991211-0.1035156,0.1489258-0.2451172,0.1367188-0.3886719L56.6777344,22.03125H53.7895508z"></path><path d="M53.237793,23.2158203l-0.0771484-1.6386719c-0.9472656,0.9355469-2.0961914,1.5556641-3.3759766,1.5556641   c-1.3647461,0-2.5805664-0.7050781-3.5615234-1.7460938V22.03125c0,0.265625,0.0288086,0.5263672,0.0717773,0.7841797   c0.309082,0.6953125,1.3251953,2.2001953,3.5209961,2.2001953C52.3745117,25.015625,53.15625,23.4580078,53.237793,23.2158203z"></path><path d="M53.2924805,24.3710938c-0.4614258,0.6914062-1.4282227,1.4248047-3.4765625,1.4248047   c-0.9892578,0-1.734375-0.2197266-2.3188477-0.5419922c1.175293,1.2832031,3.1577148,2.1669922,5.9414062,2.2216797   L53.2924805,24.3710938z"></path><path d="M39.2001953,34.2001953l-1.7792969,15.8271484c-0.0112305,0.1005859,0.0083008,0.2021484,0.0561523,0.2919922   l1.8608398,3.4707031L39.2001953,34.2001953z"></path><path d="M26.9287109,26.4990234l10.7841797,6.4023438l-3.7392578-5.1171875l0.6499023-0.3945312l5.2773438,6.8105469   l0.1376953,19.5898438l-0.4599609,9.7539062l20.2578125,7.6279297l-0.5556641-6.4697266l-4.1054688-0.3681641l-1.6894531-35.859375   c-6.1811523-0.1005859-7.7265625-4.2158203-7.7265625-6.4433594H20.4799805l2.2993164,9.7470703   c0.0615234,0.2587891,0.3154297,0.4267578,0.5766602,0.3769531l8.559082-1.7451172l-5.5205078-3.4580078L26.9287109,26.4990234z"></path><polygon points="39.5292969,64.59375 38.3432617,89.7480469 43.5498047,89.7470703 43.5498047,81.1943359 44.5498047,81.1943359    44.5498047,89.7460938 49.2563477,89.7451172 49.2563477,81.1943359 50.2563477,81.1943359 50.2563477,89.7451172    54.9633789,89.7431641 54.9633789,81.1943359 55.9633789,81.1943359 55.9633789,89.7431641 61.1699219,89.7412109    59.9150391,72.2705078  "></polygon></g></svg>