<svg height='300px' width='300px'  fill="#FFFFFF" xmlns="http://www.w3.org/2000/svg" xmlns:xlink="http://www.w3.org/1999/xlink" version="1.1" x="0px" y="0px" viewBox="0 0 100 100" style="enable-background:new 0 0 100 100;" xml:space="preserve"><path d="M94.9,92.5L88,66.7V61c0-1.1-0.9-2-2-2s-2,0.9-2,2v4h-5V53h8c1.1,0,2-0.9,2-2c0-1.1-0.9-2-2-2h-4.5  c-4.2-2.4-6.9-9.8-7.6-12.5c-0.2-0.9-1-1.5-1.9-1.5h-4v-6h1c0,0,0,0,0,0h5c1.1,0,2-0.9,2-2c0-1.1-0.9-2-2-2h-4.5  c-4-2.3-6.7-9.1-7.5-12.1V7c0-1.1-0.9-2-2-2s-2,0.9-2,2v4H41V7c0-1.1-0.9-2-2-2s-2,0.9-2,2v5.9c-0.9,3-3.5,9.8-7.5,12.1H25  c-1.1,0-2,0.9-2,2c0,1.1,0.9,2,2,2h6v6h-4c-0.9,0-1.7,0.6-1.9,1.5c-0.7,2.7-3.5,10.2-7.6,12.5H13c-1.1,0-2,0.9-2,2c0,1.1,0.9,2,2,2  h8v12h-5v-4c0-1.1-0.9-2-2-2s-2,0.9-2,2v5.7L5.1,92.5c-0.2,0.6,0,1.2,0.3,1.7C5.8,94.7,6.4,95,7,95h34c1.1,0,2-0.9,2-2v-7  c0-3.9,3.1-7,7-7s7,3.1,7,7v7c0,1.1,0.9,2,2,2h34c0.6,0,1.2-0.3,1.6-0.8C95,93.7,95.1,93.1,94.9,92.5z M40.5,15h18.9  c0.7,2.3,2.4,6.6,5.1,10H35.4C38.1,21.6,39.8,17.3,40.5,15z M35,29h30v6H35V29z M28.5,39h42.9c0.7,2.3,2.4,6.6,5.1,10H23.4  C26.1,45.6,27.8,41.3,28.5,39z M68,59c-1.1,0-2,0.9-2,2v4H52v-4c0-1.1-0.9-2-2-2s-2,0.9-2,2v4H34v-4c0-1.1-0.9-2-2-2s-2,0.9-2,2v4  h-5V53h50v12h-5v-4C70,59.9,69.1,59,68,59z M61,91v-5c0-6.1-4.9-11-11-11s-11,4.9-11,11v5H9.6l5.9-22h68.9l5.9,22H61z"></path></svg>